<?xml version="1.0" standalone="no"?>
<!DOCTYPE svg PUBLIC "-//W3C//DTD SVG 20010904//EN"
 "http://www.w3.org/TR/2001/REC-SVG-20010904/DTD/svg10.dtd">
<svg version="1.0" xmlns="http://www.w3.org/2000/svg"
 width="1254.000000pt" height="1254.000000pt" viewBox="0 0 1254.000000 1254.000000"
 preserveAspectRatio="xMidYMid meet">

<g transform="translate(0.000000,1254.000000) scale(0.100000,-0.100000)"
fill="#000000" stroke="none">
<path d="M0 6270 l0 -6270 6270 0 6270 0 0 6270 0 6270 -6270 0 -6270 0 0
-6270z m9784 3486 c63 -47 68 -71 64 -300 -3 -192 -4 -202 -26 -234 -13 -18
-41 -41 -62 -52 -39 -20 -72 -20 -3486 -20 l-3448 0 -43 21 c-29 14 -52 35
-69 64 -25 44 -25 45 -22 247 3 196 4 204 27 237 13 18 42 42 65 52 40 18 144
19 3502 16 l3461 -2 37 -29z m-1003 -1219 c31 -16 51 -36 67 -67 22 -43 23
-53 20 -245 -3 -220 -6 -231 -72 -278 l-31 -22 -2980 0 -2980 0 -37 23 c-67
42 -78 81 -78 290 0 200 6 229 56 276 16 15 43 31 59 35 17 5 1306 10 2981 10
l2951 1 44 -23z m-4 -1248 c23 -11 53 -35 65 -52 22 -31 23 -40 23 -248 l0
-216 -27 -35 c-15 -19 -42 -43 -61 -52 -32 -15 -272 -16 -2994 -16 l-2960 0
-43 23 c-30 16 -51 37 -67 67 -22 40 -23 54 -23 227 0 134 4 192 14 216 17 41
65 85 102 97 16 4 1347 9 2978 9 l2950 1 43 -21z m10 -1261 c17 -10 42 -32 55
-50 22 -31 23 -43 26 -223 2 -115 -1 -204 -7 -225 -13 -43 -64 -93 -110 -109
-46 -15 -5878 -16 -5934 0 -51 14 -104 63 -117 107 -13 47 -13 356 0 402 12
42 65 97 106 110 16 5 1327 8 2989 7 2789 -2 2962 -3 2992 -19z m-2050 -1265
c19 -9 47 -34 61 -56 27 -40 27 -41 27 -242 l0 -201 -27 -41 c-53 -80 140 -73
-2050 -71 l-1953 3 -34 24 c-61 44 -71 82 -71 286 0 168 2 184 23 225 14 30
36 53 62 67 l40 23 1943 0 c1789 0 1947 -1 1979 -17z m1618 -323 l0 -145 158
-3 157 -3 0 -149 0 -150 145 0 145 0 0 -140 0 -140 315 0 315 0 0 140 0 140
140 0 140 0 1 48 c0 26 1 94 2 152 l2 105 163 -4 162 -3 0 151 0 151 144 0
c129 0 145 -2 149 -17 3 -10 4 -79 2 -153 -1 -74 -3 -201 -4 -282 l-1 -148
-145 0 -145 0 0 -145 0 -145 120 0 120 0 0 -101 0 -102 53 7 c28 3 91 6 140 6
48 0 86 3 86 8 -1 4 -1 71 0 150 l1 142 140 0 140 0 0 144 0 144 93 4 c50 2
122 1 160 -1 l67 -3 0 -299 0 -299 -155 0 -155 0 0 -140 0 -140 -150 0 -150 0
0 -77 c0 -54 -3 -73 -10 -63 -8 13 -10 13 -10 -2 0 -19 -35 -42 -50 -33 -6 3
-10 2 -10 -4 0 -13 -33 -7 -38 7 -2 7 3 10 12 6 9 -3 16 -1 16 6 0 7 8 9 21 5
20 -7 21 -4 17 26 -6 40 6 79 30 97 26 20 -1 32 -73 32 -52 0 -67 -5 -112 -35
-45 -30 -52 -32 -56 -17 -3 9 -5 -28 -6 -83 0 -55 3 -95 7 -89 13 20 50 34 93
34 36 0 41 -2 36 -20 -3 -10 0 -21 7 -24 6 -2 -90 -4 -214 -3 l-225 2 0 -150
0 -150 145 -5 145 -5 0 -145 0 -145 138 -3 137 -3 0 151 0 150 145 0 144 0 3
158 3 157 158 3 157 3 0 -311 0 -310 -155 0 -154 0 -3 -147 -3 -148 -1732 -2
-1733 -2 0 149 c0 149 0 150 -22 151 -13 1 -79 2 -148 3 l-125 1 -3 303 -2
302 37 2 c44 2 257 -3 260 -6 2 -2 3 -58 4 -127 1 -68 3 -136 6 -151 l5 -28
144 0 c131 0 144 -2 142 -17 -1 -10 0 -78 0 -150 l2 -133 140 0 140 0 0 150 0
150 145 0 145 0 0 155 0 155 -144 0 c-79 0 -146 -4 -148 -9 -1 -4 -23 -6 -48
-2 l-45 6 42 30 c48 34 53 46 53 133 0 54 -2 62 -19 62 -10 0 -24 -6 -30 -14
-7 -8 -31 -16 -54 -18 -48 -5 -99 8 -78 21 22 14 -55 21 -231 21 l-168 0 0
146 0 147 -150 -5 -150 -5 0 299 0 298 150 0 150 0 0 -145 0 -144 148 -3 147
-3 0 -142 c0 -78 2 -143 5 -146 3 -3 67 -7 143 -9 l137 -4 0 98 0 98 113 0
114 0 6 98 c4 53 7 118 7 144 l0 47 -147 3 -148 3 -3 298 -2 298 147 -3 148
-3 0 -145z m-1652 -931 c22 -6 55 -26 75 -44 l37 -33 3 -214 c3 -209 3 -214
-20 -247 -13 -19 -36 -44 -51 -55 l-28 -21 -1957 0 c-1885 0 -1958 1 -1987 18
-17 11 -42 35 -55 55 -24 34 -25 44 -28 207 -4 190 4 239 46 286 56 62 -72 58
2017 59 1324 0 1922 -3 1948 -11z m1170 -362 c16 -6 19 -18 20 -82 0 -23 -4
-29 -18 -27 -18 4 -18 2 2 -44 2 -6 -5 -14 -16 -17 -20 -5 -21 -1 -21 96 0 56
4 97 8 91 4 -6 15 -13 25 -17z m4588 -1420 c-10 -9 -11 -8 -5 6 3 10 9 15 12
12 3 -3 0 -11 -7 -18z m-581 -1001 c0 -2 -8 -10 -17 -17 -16 -13 -17 -12 -4 4
13 16 21 21 21 13z m-280 -250 c0 -2 -8 -10 -17 -17 -16 -13 -17 -12 -4 4 13
16 21 21 21 13z m-947 -433 c-7 -2 -21 -2 -30 0 -10 3 -4 5 12 5 17 0 24 -2
18 -5z"/>
</g>
</svg>
